<?xml version="1.0" encoding="utf-8"?>
<!-- Generator: Adobe Illustrator 26.4.1, SVG Export Plug-In . SVG Version: 6.00 Build 0)  -->
<svg version="1.1" id="Layer_1" xmlns="http://www.w3.org/2000/svg" xmlns:xlink="http://www.w3.org/1999/xlink" x="0px" y="0px"
	 viewBox="0 0 180 180" style="enable-background:new 0 0 180 180;" xml:space="preserve">
<style type="text/css">
	.st0{fill:#FFFFFF;stroke:#0FB579;stroke-miterlimit:10;}
	.st1{fill:none;stroke:#120A3B;stroke-miterlimit:10;}
	.st2{fill-rule:evenodd;clip-rule:evenodd;fill:#0FB579;}
	.st3{fill-rule:evenodd;clip-rule:evenodd;fill:#120A3B;}
	.st4{fill:#120A3B;}
	.st5{fill:#0FB579;}
</style>
<circle class="st0" cx="90" cy="90" r="85.81"/>
<circle class="st1" cx="90" cy="90" r="82.06"/>
<g>
	<g>
		<path class="st2" d="M123.47,140.05c-0.1,0.08-0.19,0.14-0.28,0.21c-0.06,0.04-0.1,0.09-0.14,0.13c-0.08-0.02-0.16-0.03-0.23-0.04
			c-1.07-0.15-2.05-0.1-2.97,0.04c-0.45,0.07-0.89,0.15-1.31,0.25c-0.26,0.06-0.51,0.11-0.77,0.17c-1.08,0.25-2.11,0.49-3.2,0.5
			c-1.5,0.01-2.6-0.76-3.17-1.84c-0.15-0.29-0.27-0.61-0.34-0.94c0.04,0.01,0.07,0.01,0.11,0.01h0.33c0.06,0.26,0.15,0.5,0.28,0.73
			c0.49,0.95,1.48,1.63,2.8,1.62c1.04-0.01,2.06-0.24,3.12-0.49c0.61-0.14,1.24-0.28,1.89-0.39c0.33-0.05,0.67-0.09,1.02-0.13
			c0.81-0.07,1.67-0.06,2.6,0.11C123.28,140.01,123.37,140.03,123.47,140.05z"/>
		<path class="st3" d="M124.3,140.26l-0.01,0.02l-0.11,0.37c-0.39-0.11-0.77-0.2-1.14-0.26c0.05-0.04,0.09-0.08,0.14-0.13
			c0.08-0.07,0.18-0.14,0.28-0.22C123.73,140.1,124.01,140.17,124.3,140.26C124.29,140.25,124.29,140.26,124.3,140.26z"/>
		<path class="st3" d="M126.83,139.77c-0.03-0.04-0.06-0.07-0.1-0.11c-0.04-0.03-0.08-0.07-0.12-0.1c-0.05-0.03-0.1-0.05-0.15-0.07
			s-0.13-0.05-0.19-0.06c-0.08-0.01-0.15-0.03-0.23-0.03c-0.09-0.01-0.2-0.01-0.3-0.01c-0.09,0.01-0.18,0.01-0.26,0.04
			c-0.09,0.02-0.17,0.05-0.25,0.07c-0.09,0.04-0.17,0.08-0.23,0.12c-0.06,0.04-0.11,0.08-0.15,0.12c-0.05,0.04-0.09,0.08-0.11,0.12
			c-0.02,0.03-0.04,0.06-0.05,0.09c-0.02,0.03-0.02,0.06-0.02,0.08c0,0.02,0.01,0.03,0.01,0.05c0,0.01,0.01,0.03,0.02,0.04
			c0.01,0,0.01,0,0.02,0.01c0.02,0,0.06,0.01,0.14,0.02c0.13,0.01,0.33,0.02,0.53,0.03l0.21,0.01c0.16,0.01,0.31,0.02,0.44,0.02
			l0.26,0.02c0.07,0,0.12,0,0.17,0c-0.33-0.4-0.85-0.57-1.31-0.44c0.53-0.19,1.12-0.03,1.46,0.41c0.02-0.01,0.05-0.03,0.07-0.05
			c0.04-0.03,0.08-0.06,0.11-0.1c0.03-0.03,0.05-0.06,0.07-0.09c0.02-0.03,0.02-0.06,0.02-0.09
			C126.85,139.83,126.84,139.8,126.83,139.77z M135.3,143.83c-0.57-1.91-4.72-4.9-7.72-4.79c0.53,0.02,1.11,0.13,1.7,0.32
			c-0.55-0.17-1.12-0.28-1.7-0.32c-1.35-0.1-2.73,0.14-3.8,0.8c0.28-0.05,0.57-0.07,0.87-0.07c0.02-0.04,0.06-0.07,0.1-0.1
			c0.05-0.05,0.1-0.09,0.17-0.13c0.07-0.05,0.16-0.09,0.25-0.13c0.08-0.04,0.17-0.06,0.26-0.09c0.09-0.02,0.19-0.03,0.29-0.03
			c0.1-0.01,0.21,0,0.31,0c0.09,0.01,0.17,0.02,0.24,0.04c0.08,0.02,0.15,0.04,0.22,0.06c0.06,0.03,0.12,0.06,0.17,0.09
			c0.05,0.04,0.1,0.07,0.14,0.1c0.02,0.02,0.04,0.04,0.05,0.05h0.02c0.14,0,0.25,0.15,0.17,0.28l-0.05,0.08
			c0.47,0.1,0.91,0.23,1.29,0.4c0.04,0.01,0.05,0.05,0.04,0.09c-0.01,0.03-0.05,0.05-0.09,0.03c-0.4-0.17-0.85-0.3-1.32-0.4
			c-0.05,0.07-0.11,0.14-0.18,0.22c-0.18,0.19-0.53,0.15-0.53,0.15s-1.48-0.09-1.76-0.11c-0.1-0.01-0.14-0.04-0.14-0.08
			c0-0.01,0-0.02,0-0.03c0.01-0.06,0.08-0.12,0.08-0.12l0.2-0.21v-0.01l0-0.01c-0.37,0.02-0.73,0.06-1.06,0.12
			c-0.02,0.01-0.03,0.02-0.05,0.03c-0.1,0.07-0.19,0.14-0.28,0.22c-0.05,0.05-0.1,0.09-0.14,0.13c-0.09,0.08-0.16,0.16-0.23,0.23
			c-0.26,0.31-0.32,0.54-0.3,0.7c0.02,0.25,0.11,0.26,0.31,0.35c0.44,0.19,1.47,0.62,2.25,0.68c2.07,0.14,3.43,0.37,4.4,0.74
			c0.97,0.37,2.38,1.24,3.05,2.33c0.66,1.08,0.77,1.32,0.77,1.32s0.2,0.55,0.26,1.03c-0.13,0.08-0.26,0.16-0.41,0.23
			c-0.91,0.45-2.07,0.27-2.93-0.44c-0.85-0.7-1.51-1.8-2.59-2.7c-1.08-0.89-2.56-1.38-3.98-1.95c-1.43-0.56-1.43-1.04-1.43-1.04
			c-0.06,0.81,0.28,1.37,1.2,2.16c0.91,0.78,3.05,1.41,4.16,1.95c1.51,0.73,1.93,2.19,3.45,2.62c1.29,0.37,2.42-0.26,2.42-0.26
			s0.31-0.19,0.69-0.5c0.77-0.61,1.5-1.31,1.52-2.34C135.68,144.65,135.3,143.83,135.3,143.83z M134.66,144.03
			c-0.85-1.14-0.73-1.37-3.38-3.65c-0.35-0.29-0.77-0.53-1.21-0.73c1.72,0.73,3.45,2.01,4.43,3.32c0.57,0.76,0.92,1.58,0.8,2.44
			C135.23,145.05,135.06,144.57,134.66,144.03z"/>
	</g>
	<path class="st2" d="M122.91,100.86c-1.45,10.12-7.28,13.46-17.51,10.02c6.56,7.41,8.52,16.38,5.86,26.87h0.03
		c0.15,0,0.29,0.08,0.37,0.2C119.55,130.27,123.3,117.9,122.91,100.86z M108.52,79.72l6.36-7.68l-16.12,1.74L88,85.42l1.61-0.04
		c-0.29,1.11-0.13,1.22-0.05,2.05c-0.26,0.17-0.42,0.5-0.38,0.87c0.06,0.55,0.52,0.98,1.02,0.97c-0.09,1.55-0.43,1.68-1.14,1.32
		c0.25,2.15,2.93,2.93,1.63-1.5c0.22-0.18,0.35-0.42,0.3-0.82c-0.05-0.4-0.39-0.85-0.79-0.95c-0.22-0.97-0.26-1.27,0.1-1.96
		l7.41-0.16c-0.75,3.83,1.49,7.68,5.3,8.85c4.06,1.25,8.37-1.05,9.61-5.1C113.77,85.23,111.95,81.31,108.52,79.72z M115.41,65.03
		c3.82,29.11-5.13,38.33-26.84,27.7c6.09,6.52,11.49,11.14,16.21,13.85c9.33,5.36,15,2.08,16.36-8.86
		C122.09,89.96,120.18,79.07,115.41,65.03z"/>
	<g>
		<path class="st4" d="M77.37,103.04c-0.45,1-0.09,1.55,1.01,1.55c3.3,0,6.61,0.02,9.92,0c1.28-0.01,2.15,0.53,2.7,1.7
			c1.54,3.24,3.14,6.45,4.7,9.67c0.73,1.5,0.09,3.11-1.41,3.56c-0.31,0.1-0.64,0.11-0.95,0.11H82.26c-3.71,0-7.43,0.01-11.13-0.01
			c-0.82,0-1.32,0.32-1.65,1.08c-1.72,3.89-3.47,7.77-5.19,11.66c-0.48,1.08-1.27,1.61-2.46,1.6c-3.66-0.01-7.33-0.06-10.98,0.02
			c-1.83,0.05-3.28-1.71-2.35-3.7c4.42-9.49,8.81-19.01,13.2-28.52c8.37-18.12,16.74-36.22,25.1-54.34
			c0.68-1.46,2.18-2.01,3.48-1.29c0.49,0.26,0.83,0.67,1.06,1.16c1.69,3.6,3.35,7.19,5.04,10.79c0.39,0.83,0.33,1.63-0.04,2.46
			C90,74.68,83.69,88.86,77.37,103.04z"/>
	</g>
	<path class="st5" d="M84.22,42.84c7.02,2.16,14.03,4.35,21.01,6.62c0.47,3.14,0.32,6.52-1.4,9.29c-2.78,5.12-9.37,7.76-14.9,5.87
		c-5.68-1.59-9.53-7.59-8.87-13.41C80.26,47.97,82.08,45.16,84.22,42.84z"/>
	<polygon class="st5" points="76.92,36.76 73.99,43.07 76.64,42.1 77.53,44.51 80.38,38.36 	"/>
	<polygon class="st4" points="83.25,40.72 73.55,34.92 102.28,33.55 119.31,55.86 108.21,52.28 	"/>
	<path class="st4" d="M110.13,49.53l-4.05,8.74c-2.42-4.29-6.14-7.87-10.94-10.1c-4.8-2.22-9.94-2.74-14.77-1.82l4.05-8.74
		L110.13,49.53z"/>
	<path class="st5" d="M83.25,40.72c5.3-0.65,10.61-1.1,15.92-1.57l0.15-0.01l0.09,0.12c3.17,4.37,6.34,8.72,9.35,13.21
		c-3.37-4.22-6.57-8.56-9.78-12.89l0.24,0.11C93.9,40.09,88.58,40.5,83.25,40.72z"/>
	<path class="st5" d="M109.6,26.81c-3.18,0.84-5.51-0.16-7.03-3.06c0.86,3.13-0.03,5.49-2.95,7.03c1.41-0.29,2.77-0.47,4.1,0.14
		c1.31,0.6,2.16,1.66,2.88,2.9C105.69,30.66,106.71,28.35,109.6,26.81z"/>
	<path class="st4" d="M98.25,56.46c0.27-3.03-1.46-6-4.44-7.18c-2.97-1.18-6.26-0.21-8.16,2.18c-0.42,0.53-0.77,1.12-1.03,1.78
		c-0.16,0.4-0.27,0.8-0.35,1.21c-0.2,1-0.18,2,0.03,2.96c0.03,0.14,0.07,0.28,0.11,0.43c0.6,2.02,2.07,3.76,4.17,4.59
		c1.4,0.56,2.88,0.63,4.24,0.31c0.68-0.16,1.34-0.43,1.95-0.78c0.97-0.56,1.81-1.37,2.43-2.36c0.22-0.35,0.42-0.73,0.57-1.12
		C98.05,57.81,98.2,57.14,98.25,56.46z M90.79,57.04l-1.52,0.19l-0.06,0.01l1.49-3.75l2.69,3.24L90.79,57.04z"/>
	<path class="st2" d="M119.78,64.26l1.62-0.51l0.51,1.62l-1.62,0.51L119.78,64.26z M131.76,58.61l-4.86,1.52l1.52,4.86l4.86-1.52
		L131.76,58.61z M128.08,67.3l-2.29,0.72l0.72,2.29l2.29-0.72L128.08,67.3z M120.31,56.65l3.53-1.11l1.11,3.53l-3.53,1.11
		L120.31,56.65z"/>
	<path class="st3" d="M111.62,138.55c0.02,0.08,0.04,0.16,0.06,0.25h-0.47c-0.05,0-0.1-0.01-0.15-0.02
		c-0.01-0.03-0.02-0.05-0.02-0.08c-0.01-0.05-0.02-0.1-0.03-0.15c-0.11-0.08-0.17-0.21-0.17-0.35c0-0.24,0.18-0.43,0.42-0.45h0.03
		c0.15,0,0.29,0.08,0.37,0.2c0.05,0.06,0.07,0.15,0.07,0.25c0,0.12-0.05,0.23-0.12,0.31C111.61,138.52,111.62,138.53,111.62,138.55z
		"/>
</g>
<g>
	<path class="st4" d="M41.95,143.59c-0.43-0.25-0.78-0.6-1.03-1.04c-0.25-0.44-0.38-0.91-0.38-1.43c0-0.52,0.12-1,0.38-1.43
		s0.59-0.78,1.03-1.03c0.44-0.25,0.92-0.38,1.44-0.38c0.53,0,1.01,0.13,1.44,0.38c0.43,0.25,0.78,0.59,1.03,1.03
		c0.25,0.43,0.38,0.91,0.38,1.43c0,0.52-0.13,1-0.38,1.43c-0.25,0.44-0.59,0.78-1.03,1.04c-0.44,0.25-0.92,0.38-1.44,0.38
		S42.39,143.85,41.95,143.59z M44.17,142.54c0.24-0.14,0.43-0.34,0.57-0.59c0.14-0.25,0.21-0.53,0.21-0.83
		c0-0.3-0.07-0.57-0.21-0.82c-0.14-0.25-0.33-0.44-0.57-0.59s-0.5-0.21-0.77-0.21c-0.28,0-0.54,0.07-0.78,0.21
		c-0.24,0.14-0.43,0.34-0.57,0.59c-0.14,0.25-0.21,0.52-0.21,0.82c0,0.3,0.07,0.58,0.21,0.83c0.14,0.25,0.33,0.45,0.57,0.59
		c0.24,0.14,0.5,0.22,0.77,0.22C43.67,142.76,43.93,142.69,44.17,142.54z"/>
	<path class="st4" d="M50.74,139.34c0.29,0.17,0.51,0.42,0.67,0.73c0.16,0.32,0.24,0.68,0.24,1.1v2.55c0,0.1-0.05,0.16-0.16,0.16
		h-0.89c-0.1,0-0.16-0.05-0.16-0.16v-2.42c0-0.22-0.04-0.42-0.12-0.59s-0.19-0.3-0.34-0.39c-0.15-0.09-0.32-0.14-0.52-0.14
		c-0.21,0-0.4,0.05-0.58,0.15c-0.18,0.1-0.32,0.23-0.42,0.39s-0.16,0.34-0.16,0.52v2.47c0,0.1-0.05,0.16-0.16,0.16h-0.89
		c-0.1,0-0.16-0.05-0.16-0.16v-4.4c0-0.1,0.05-0.16,0.16-0.16h0.68c0.09,0,0.15,0.04,0.18,0.12l0.14,0.42
		c0.18-0.18,0.41-0.33,0.68-0.45s0.54-0.18,0.79-0.18C50.11,139.08,50.45,139.16,50.74,139.34z"/>
	<path class="st4" d="M53.7,143.87h-0.87c-0.1,0-0.16-0.05-0.16-0.16v-5.79c0-0.1,0.05-0.16,0.16-0.16h0.87
		c0.1,0,0.16,0.05,0.16,0.16v5.79C53.86,143.82,53.81,143.87,53.7,143.87z"/>
	<path class="st4" d="M55.01,138.44v-0.81c0-0.1,0.05-0.16,0.16-0.16h0.9c0.1,0,0.16,0.05,0.16,0.16v0.81c0,0.1-0.05,0.16-0.16,0.16
		h-0.9C55.06,138.59,55.01,138.54,55.01,138.44z M56.06,143.87h-0.89c-0.1,0-0.16-0.05-0.16-0.16v-4.4c0-0.1,0.05-0.16,0.16-0.16
		h0.89c0.1,0,0.16,0.05,0.16,0.16v4.4C56.22,143.82,56.17,143.87,56.06,143.87z"/>
	<path class="st4" d="M61,139.34c0.29,0.17,0.51,0.42,0.67,0.73c0.16,0.32,0.24,0.68,0.24,1.1v2.55c0,0.1-0.05,0.16-0.16,0.16h-0.89
		c-0.1,0-0.16-0.05-0.16-0.16v-2.42c0-0.22-0.04-0.42-0.12-0.59s-0.19-0.3-0.34-0.39c-0.15-0.09-0.32-0.14-0.52-0.14
		c-0.21,0-0.4,0.05-0.58,0.15c-0.18,0.1-0.32,0.23-0.42,0.39s-0.16,0.34-0.16,0.52v2.47c0,0.1-0.05,0.16-0.16,0.16h-0.89
		c-0.1,0-0.16-0.05-0.16-0.16v-4.4c0-0.1,0.05-0.16,0.16-0.16h0.68c0.09,0,0.15,0.04,0.18,0.12l0.14,0.42
		c0.18-0.18,0.41-0.33,0.68-0.45s0.54-0.18,0.79-0.18C60.38,139.08,60.72,139.16,61,139.34z"/>
	<path class="st4" d="M63.81,143.66c-0.37-0.22-0.66-0.52-0.87-0.89c-0.21-0.38-0.31-0.78-0.31-1.23c0-0.45,0.1-0.86,0.3-1.23
		c0.2-0.38,0.47-0.67,0.83-0.9c0.35-0.22,0.75-0.33,1.19-0.33c0.48,0,0.89,0.11,1.24,0.32c0.35,0.21,0.62,0.5,0.81,0.87
		s0.28,0.79,0.28,1.26c0,0.08,0,0.17-0.01,0.27c-0.01,0.09-0.07,0.14-0.16,0.14h-3.24c0.05,0.2,0.14,0.38,0.27,0.52
		c0.12,0.15,0.27,0.26,0.44,0.34s0.35,0.12,0.55,0.12c0.18,0,0.35-0.03,0.5-0.08c0.15-0.05,0.29-0.13,0.43-0.23
		c0.03-0.03,0.07-0.04,0.1-0.04c0.04,0,0.08,0.02,0.11,0.07l0.42,0.59c0.03,0.04,0.04,0.07,0.04,0.1c0,0.04-0.02,0.08-0.06,0.11
		c-0.22,0.17-0.46,0.31-0.73,0.4c-0.27,0.09-0.55,0.14-0.86,0.14C64.6,143.99,64.18,143.88,63.81,143.66z M65.69,140.36
		c-0.19-0.16-0.43-0.24-0.71-0.24c-0.27,0-0.51,0.08-0.72,0.25s-0.34,0.39-0.42,0.68h2.24C66.02,140.75,65.88,140.52,65.69,140.36z"
		/>
	<path class="st5" d="M74.87,143.76c0,0.04-0.01,0.06-0.04,0.08s-0.06,0.03-0.1,0.03h-0.98c-0.09,0-0.15-0.04-0.18-0.13l-0.29-0.8
		h-2.1l-0.29,0.8c-0.03,0.09-0.08,0.13-0.18,0.13h-0.98c-0.04,0-0.07-0.01-0.1-0.03s-0.04-0.05-0.04-0.08c0-0.02,0-0.04,0.01-0.07
		l2.02-5.19c0.03-0.08,0.09-0.12,0.18-0.12h0.85c0.09,0,0.15,0.04,0.18,0.12l2,5.19C74.87,143.72,74.87,143.74,74.87,143.76z
		 M72.93,141.87l-0.62-1.76l-0.06-0.22l-0.05,0.22l-0.62,1.76H72.93z"/>
	<path class="st5" d="M76.29,143.66c-0.37-0.22-0.66-0.52-0.87-0.89c-0.21-0.38-0.31-0.78-0.31-1.23c0-0.45,0.1-0.86,0.31-1.24
		c0.21-0.38,0.5-0.67,0.87-0.89s0.79-0.33,1.26-0.33c0.31,0,0.6,0.05,0.86,0.14c0.27,0.09,0.51,0.22,0.72,0.39
		c0.04,0.04,0.07,0.08,0.07,0.12c0,0.03-0.01,0.06-0.04,0.1l-0.43,0.61c-0.03,0.05-0.07,0.07-0.11,0.07c-0.03,0-0.07-0.01-0.11-0.04
		c-0.14-0.1-0.28-0.17-0.43-0.23c-0.15-0.05-0.31-0.08-0.5-0.08c-0.23,0-0.45,0.06-0.64,0.18s-0.36,0.28-0.47,0.49
		c-0.12,0.21-0.18,0.44-0.18,0.7c0,0.25,0.06,0.49,0.18,0.69c0.12,0.21,0.28,0.37,0.48,0.49c0.2,0.12,0.41,0.18,0.64,0.18
		c0.18,0,0.35-0.03,0.49-0.08c0.15-0.05,0.29-0.13,0.43-0.23c0.04-0.03,0.07-0.04,0.1-0.04c0.04,0,0.08,0.03,0.12,0.07l0.43,0.61
		c0.03,0.04,0.04,0.07,0.04,0.11c0,0.03-0.02,0.07-0.05,0.09c-0.22,0.17-0.46,0.31-0.74,0.41c-0.27,0.1-0.57,0.14-0.88,0.14
		C77.08,143.99,76.66,143.88,76.29,143.66z"/>
	<path class="st5" d="M83.51,139.16h0.67c0.1,0,0.16,0.05,0.16,0.16v4.4c0,0.1-0.05,0.16-0.16,0.16h-0.69
		c-0.09,0-0.14-0.04-0.18-0.13l-0.08-0.31c-0.34,0.36-0.78,0.54-1.3,0.54c-0.44,0-0.84-0.11-1.21-0.33
		c-0.37-0.22-0.66-0.52-0.87-0.89c-0.21-0.38-0.32-0.79-0.32-1.23c0-0.45,0.11-0.86,0.32-1.23c0.21-0.37,0.51-0.67,0.87-0.89
		c0.37-0.22,0.77-0.33,1.21-0.33c0.53,0,0.97,0.18,1.31,0.54l0.09-0.34C83.37,139.2,83.42,139.16,83.51,139.16z M82.6,142.66
		c0.19-0.11,0.34-0.26,0.45-0.46s0.16-0.42,0.16-0.66c0-0.25-0.05-0.47-0.16-0.67s-0.26-0.36-0.45-0.47
		c-0.19-0.11-0.4-0.17-0.64-0.17s-0.45,0.06-0.63,0.17s-0.33,0.27-0.44,0.47c-0.11,0.2-0.16,0.42-0.16,0.67
		c0,0.25,0.05,0.47,0.16,0.67c0.11,0.2,0.25,0.35,0.44,0.46s0.4,0.16,0.63,0.16C82.19,142.83,82.41,142.77,82.6,142.66z"/>
	<path class="st5" d="M88.93,137.76h0.89c0.1,0,0.16,0.05,0.16,0.16v5.8c0,0.1-0.05,0.16-0.16,0.16h-0.69
		c-0.09,0-0.14-0.04-0.18-0.13l-0.08-0.31c-0.34,0.36-0.78,0.54-1.3,0.54c-0.44,0-0.84-0.11-1.21-0.33
		c-0.37-0.22-0.66-0.52-0.87-0.89c-0.21-0.38-0.32-0.79-0.32-1.23c0-0.45,0.11-0.86,0.32-1.23c0.21-0.37,0.51-0.67,0.87-0.89
		c0.37-0.22,0.77-0.33,1.21-0.33c0.48,0,0.88,0.15,1.2,0.45v-1.61C88.78,137.82,88.83,137.76,88.93,137.76z M88.24,142.66
		c0.19-0.11,0.34-0.26,0.45-0.46s0.16-0.42,0.16-0.66c0-0.25-0.05-0.47-0.16-0.67s-0.26-0.36-0.45-0.47
		c-0.19-0.11-0.4-0.17-0.64-0.17s-0.45,0.06-0.63,0.17s-0.33,0.27-0.44,0.47c-0.11,0.2-0.16,0.42-0.16,0.67
		c0,0.25,0.05,0.47,0.16,0.67c0.11,0.2,0.25,0.35,0.44,0.46s0.4,0.16,0.63,0.16C87.83,142.83,88.05,142.77,88.24,142.66z"/>
	<path class="st5" d="M92,143.66c-0.37-0.22-0.66-0.52-0.87-0.89c-0.21-0.38-0.31-0.78-0.31-1.23c0-0.45,0.1-0.86,0.3-1.23
		c0.2-0.38,0.47-0.67,0.83-0.9c0.35-0.22,0.75-0.33,1.19-0.33c0.48,0,0.89,0.11,1.24,0.32s0.62,0.5,0.81,0.87
		c0.19,0.37,0.28,0.79,0.28,1.26c0,0.08,0,0.17-0.01,0.27c-0.01,0.09-0.07,0.14-0.16,0.14h-3.24c0.05,0.2,0.14,0.38,0.27,0.52
		c0.12,0.15,0.27,0.26,0.44,0.34s0.35,0.12,0.55,0.12c0.18,0,0.35-0.03,0.5-0.08c0.15-0.05,0.29-0.13,0.43-0.23
		c0.03-0.03,0.07-0.04,0.1-0.04c0.04,0,0.08,0.02,0.11,0.07l0.42,0.59c0.03,0.04,0.04,0.07,0.04,0.1c0,0.04-0.02,0.08-0.06,0.11
		c-0.22,0.17-0.46,0.31-0.73,0.4s-0.55,0.14-0.86,0.14C92.78,143.99,92.37,143.88,92,143.66z M93.88,140.36
		c-0.19-0.16-0.43-0.24-0.71-0.24c-0.27,0-0.51,0.08-0.72,0.25s-0.34,0.39-0.42,0.68h2.24C94.2,140.75,94.07,140.52,93.88,140.36z"
		/>
	<path class="st5" d="M102.68,139.29c0.26,0.16,0.47,0.4,0.61,0.71c0.14,0.32,0.21,0.7,0.21,1.14v2.57c0,0.1-0.05,0.16-0.16,0.16
		h-0.88c-0.1,0-0.16-0.05-0.16-0.16v-2.52c0-0.31-0.08-0.56-0.23-0.74c-0.15-0.18-0.36-0.27-0.64-0.27c-0.17,0-0.33,0.04-0.47,0.13
		s-0.25,0.21-0.34,0.36s-0.13,0.31-0.14,0.48v2.57c0,0.1-0.05,0.16-0.16,0.16h-0.89c-0.1,0-0.16-0.05-0.16-0.16v-2.52
		c0-0.31-0.07-0.56-0.22-0.74c-0.15-0.18-0.36-0.27-0.63-0.27c-0.18,0-0.34,0.05-0.49,0.15s-0.26,0.23-0.34,0.39
		s-0.12,0.33-0.12,0.51v2.49c0,0.1-0.05,0.16-0.16,0.16h-0.89c-0.1,0-0.16-0.05-0.16-0.16v-4.4c0-0.1,0.05-0.16,0.16-0.16h0.68
		c0.09,0,0.15,0.04,0.18,0.12l0.09,0.27c0.18-0.16,0.39-0.29,0.62-0.38c0.23-0.09,0.48-0.13,0.73-0.13c0.31,0,0.59,0.06,0.84,0.19
		c0.24,0.13,0.44,0.32,0.59,0.56c0.18-0.24,0.42-0.43,0.69-0.56c0.27-0.13,0.57-0.2,0.89-0.2
		C102.11,139.05,102.42,139.13,102.68,139.29z"/>
	<path class="st5" d="M106.27,145.26h-0.94c-0.04,0-0.08-0.01-0.1-0.03c-0.02-0.02-0.04-0.04-0.04-0.08c0-0.03,0-0.05,0.02-0.07
		l0.49-1.23l-1.74-4.51c-0.01-0.02-0.01-0.05-0.01-0.07c0-0.04,0.01-0.06,0.04-0.08s0.06-0.03,0.1-0.03h1
		c0.09,0,0.15,0.04,0.18,0.12l1.04,3.06l1.05-3.05c0.03-0.09,0.09-0.13,0.18-0.13h1c0.04,0,0.07,0.01,0.1,0.03
		c0.02,0.02,0.04,0.05,0.04,0.08c0,0.02,0,0.04-0.01,0.07l-2.21,5.8C106.42,145.22,106.36,145.26,106.27,145.26z"/>
</g>
<g>
	<path class="st4" d="M42.57,147.59h-1.52c-0.04,0-0.06-0.02-0.06-0.06v-2.12c0-0.04,0.02-0.06,0.06-0.06h1.5
		c0.04,0,0.06,0.02,0.06,0.06v0.34c0,0.04-0.02,0.06-0.06,0.06H41.5v0.41h0.8c0.04,0,0.06,0.02,0.06,0.06v0.32
		c0,0.04-0.02,0.06-0.06,0.06h-0.8v0.46h1.06c0.04,0,0.06,0.02,0.06,0.06v0.34C42.63,147.57,42.61,147.59,42.57,147.59z"/>
	<path class="st4" d="M45.61,145.71c0.11,0.07,0.19,0.16,0.25,0.29c0.06,0.13,0.09,0.29,0.09,0.47v1.05c0,0.04-0.02,0.06-0.06,0.06
		h-0.36c-0.04,0-0.06-0.02-0.06-0.06v-1.04c0-0.13-0.03-0.23-0.09-0.3c-0.06-0.07-0.15-0.11-0.26-0.11c-0.07,0-0.13,0.02-0.19,0.05
		s-0.1,0.08-0.14,0.15s-0.05,0.13-0.06,0.2v1.05c0,0.04-0.02,0.06-0.06,0.06h-0.36c-0.04,0-0.06-0.02-0.06-0.06v-1.04
		c0-0.13-0.03-0.23-0.09-0.3c-0.06-0.07-0.15-0.11-0.26-0.11c-0.07,0-0.14,0.02-0.2,0.06c-0.06,0.04-0.11,0.09-0.14,0.16
		s-0.05,0.14-0.05,0.21v1.02c0,0.04-0.02,0.06-0.06,0.06h-0.36c-0.04,0-0.06-0.02-0.06-0.06v-1.81c0-0.04,0.02-0.06,0.06-0.06h0.28
		c0.04,0,0.06,0.02,0.07,0.05l0.04,0.11c0.07-0.07,0.16-0.12,0.25-0.16c0.1-0.04,0.2-0.05,0.3-0.05c0.13,0,0.24,0.03,0.34,0.08
		c0.1,0.05,0.18,0.13,0.24,0.23c0.08-0.1,0.17-0.18,0.28-0.23s0.23-0.08,0.36-0.08C45.37,145.61,45.5,145.64,45.61,145.71z"/>
	<path class="st4" d="M47.85,145.76c0.15,0.09,0.27,0.21,0.36,0.36c0.09,0.15,0.13,0.32,0.13,0.5s-0.04,0.35-0.13,0.51
		c-0.09,0.15-0.21,0.28-0.36,0.37c-0.15,0.09-0.32,0.13-0.5,0.13c-0.1,0-0.19-0.02-0.27-0.05c-0.08-0.03-0.16-0.08-0.22-0.14v0.65
		c0,0.04-0.02,0.06-0.06,0.06h-0.36c-0.04,0-0.06-0.02-0.06-0.06v-2.38c0-0.04,0.02-0.06,0.06-0.06h0.27c0.04,0,0.06,0.02,0.07,0.05
		l0.04,0.14c0.14-0.15,0.32-0.22,0.54-0.22C47.54,145.63,47.7,145.67,47.85,145.76z M47.61,147.1c0.08-0.04,0.14-0.11,0.18-0.19
		c0.04-0.08,0.06-0.17,0.06-0.27c0-0.1-0.02-0.19-0.07-0.27s-0.1-0.15-0.18-0.19c-0.08-0.05-0.16-0.07-0.26-0.07
		s-0.18,0.02-0.26,0.07c-0.08,0.05-0.14,0.11-0.18,0.19s-0.07,0.17-0.07,0.27c0,0.1,0.02,0.19,0.07,0.27
		c0.04,0.08,0.11,0.14,0.19,0.19c0.08,0.05,0.17,0.07,0.26,0.07C47.44,147.16,47.53,147.14,47.61,147.1z"/>
	<path class="st4" d="M49.06,147.51c-0.16-0.09-0.28-0.21-0.37-0.36s-0.14-0.32-0.14-0.5c0-0.19,0.05-0.36,0.14-0.51
		c0.09-0.16,0.21-0.28,0.37-0.37c0.16-0.09,0.33-0.13,0.51-0.13c0.19,0,0.36,0.04,0.51,0.13c0.16,0.09,0.28,0.21,0.37,0.37
		c0.09,0.15,0.14,0.32,0.14,0.51c0,0.18-0.05,0.35-0.14,0.5s-0.22,0.27-0.37,0.36s-0.33,0.13-0.51,0.13
		C49.39,147.64,49.22,147.6,49.06,147.51z M49.84,147.1c0.08-0.05,0.15-0.11,0.19-0.19c0.05-0.08,0.07-0.17,0.07-0.27
		c0-0.1-0.02-0.19-0.07-0.27c-0.05-0.08-0.11-0.15-0.19-0.19c-0.08-0.05-0.17-0.07-0.27-0.07s-0.18,0.02-0.27,0.07
		c-0.08,0.05-0.15,0.11-0.19,0.19c-0.05,0.08-0.07,0.17-0.07,0.27c0,0.1,0.02,0.19,0.07,0.27c0.05,0.08,0.11,0.15,0.19,0.19
		c0.08,0.05,0.17,0.07,0.27,0.07S49.76,147.15,49.84,147.1z"/>
	<path class="st4" d="M53.13,145.66h0.41c0.02,0,0.03,0,0.04,0.01c0.01,0.01,0.02,0.02,0.02,0.03c0,0.01,0,0.02,0,0.03l-0.66,1.81
		c-0.01,0.04-0.04,0.05-0.07,0.05H52.5c-0.04,0-0.06-0.02-0.07-0.05l-0.29-0.75l-0.27,0.75c-0.01,0.04-0.03,0.05-0.07,0.05h-0.37
		c-0.04,0-0.06-0.02-0.07-0.05l-0.66-1.81c0-0.01,0-0.02,0-0.03c0-0.01,0-0.03,0.02-0.03s0.02-0.01,0.04-0.01h0.39
		c0.04,0,0.06,0.02,0.07,0.05l0.41,1.29l0.36-1.29c0.01-0.04,0.03-0.05,0.07-0.05h0.41c0.02,0,0.03,0,0.04,0.01
		c0.01,0.01,0.02,0.02,0.02,0.03c0,0.01,0,0.02,0,0.03l-0.16,0.44l0.29,0.82l0.41-1.29C53.07,145.68,53.1,145.66,53.13,145.66z"/>
	<path class="st4" d="M54.17,147.51c-0.15-0.09-0.27-0.21-0.36-0.37c-0.09-0.15-0.13-0.32-0.13-0.5c0-0.18,0.04-0.35,0.12-0.51
		c0.08-0.15,0.19-0.28,0.34-0.37c0.14-0.09,0.31-0.14,0.49-0.14c0.2,0,0.37,0.04,0.51,0.13c0.14,0.09,0.26,0.21,0.33,0.36
		c0.08,0.15,0.11,0.33,0.11,0.52c0,0.03,0,0.07,0,0.11c0,0.04-0.03,0.06-0.07,0.06h-1.33c0.02,0.08,0.06,0.15,0.11,0.21
		s0.11,0.11,0.18,0.14c0.07,0.03,0.15,0.05,0.23,0.05c0.08,0,0.14-0.01,0.2-0.03c0.06-0.02,0.12-0.05,0.18-0.1
		c0.01-0.01,0.03-0.02,0.04-0.02c0.02,0,0.03,0.01,0.05,0.03l0.17,0.24c0.01,0.02,0.02,0.03,0.02,0.04c0,0.02-0.01,0.03-0.03,0.05
		c-0.09,0.07-0.19,0.12-0.3,0.16c-0.11,0.04-0.23,0.06-0.35,0.06C54.49,147.64,54.32,147.6,54.17,147.51z M54.94,146.15
		c-0.08-0.07-0.18-0.1-0.29-0.1c-0.11,0-0.21,0.03-0.29,0.1c-0.08,0.07-0.14,0.16-0.17,0.28h0.92
		C55.07,146.31,55.02,146.22,54.94,146.15z"/>
	<path class="st4" d="M57.29,145.74c0.02,0.01,0.03,0.03,0.03,0.05c0,0.01,0,0.02-0.01,0.04l-0.16,0.3
		c-0.01,0.02-0.03,0.04-0.05,0.04c-0.01,0-0.02,0-0.04-0.01c-0.08-0.04-0.16-0.07-0.23-0.07c-0.07,0-0.14,0.02-0.2,0.06
		c-0.06,0.04-0.12,0.1-0.16,0.18c-0.04,0.08-0.06,0.17-0.06,0.28v0.92c0,0.04-0.02,0.06-0.06,0.06h-0.36
		c-0.04,0-0.06-0.02-0.06-0.06v-1.81c0-0.04,0.02-0.06,0.06-0.06h0.28c0.04,0,0.06,0.02,0.07,0.05l0.06,0.18
		c0.06-0.09,0.13-0.15,0.21-0.2c0.08-0.05,0.18-0.07,0.29-0.07C57.03,145.63,57.16,145.66,57.29,145.74z"/>
	<path class="st4" d="M57.6,145.36v-0.33c0-0.04,0.02-0.06,0.06-0.06h0.37c0.04,0,0.06,0.02,0.06,0.06v0.33
		c0,0.04-0.02,0.06-0.06,0.06h-0.37C57.62,145.43,57.6,145.4,57.6,145.36z M58.03,147.59h-0.36c-0.04,0-0.06-0.02-0.06-0.06v-1.81
		c0-0.04,0.02-0.06,0.06-0.06h0.36c0.04,0,0.06,0.02,0.06,0.06v1.81C58.09,147.57,58.07,147.59,58.03,147.59z"/>
	<path class="st4" d="M60.06,145.73c0.12,0.07,0.21,0.17,0.27,0.3c0.06,0.13,0.1,0.28,0.1,0.45v1.05c0,0.04-0.02,0.06-0.06,0.06H60
		c-0.04,0-0.06-0.02-0.06-0.06v-0.99c0-0.09-0.02-0.17-0.05-0.24c-0.03-0.07-0.08-0.12-0.14-0.16c-0.06-0.04-0.13-0.06-0.21-0.06
		c-0.09,0-0.16,0.02-0.24,0.06c-0.07,0.04-0.13,0.09-0.17,0.16c-0.04,0.07-0.06,0.14-0.06,0.21v1.01c0,0.04-0.02,0.06-0.06,0.06
		h-0.36c-0.04,0-0.06-0.02-0.06-0.06v-1.81c0-0.04,0.02-0.06,0.06-0.06h0.28c0.04,0,0.06,0.02,0.07,0.05l0.06,0.17
		c0.07-0.08,0.17-0.14,0.28-0.19s0.22-0.07,0.33-0.07C59.8,145.62,59.94,145.66,60.06,145.73z"/>
	<path class="st4" d="M61.29,148.17c-0.14-0.04-0.26-0.08-0.35-0.14c-0.02-0.01-0.03-0.03-0.03-0.05c0-0.01,0-0.02,0.01-0.04
		l0.15-0.29c0.01-0.02,0.03-0.03,0.05-0.03c0.01,0,0.02,0,0.04,0.01c0.07,0.04,0.16,0.07,0.25,0.09c0.09,0.02,0.18,0.04,0.26,0.04
		c0.1,0,0.19-0.02,0.27-0.06s0.13-0.09,0.17-0.15s0.06-0.14,0.06-0.22v-0.01c-0.17,0.15-0.33,0.23-0.5,0.23
		c-0.18,0-0.34-0.04-0.48-0.13c-0.14-0.08-0.26-0.2-0.34-0.34c-0.08-0.14-0.12-0.3-0.12-0.48c0-0.19,0.04-0.36,0.12-0.51
		s0.19-0.27,0.34-0.35c0.14-0.08,0.31-0.13,0.49-0.13c0.1,0,0.2,0.02,0.3,0.06c0.1,0.04,0.18,0.09,0.24,0.16l0.03-0.13
		c0-0.01,0.01-0.03,0.03-0.04c0.01-0.01,0.03-0.01,0.05-0.01h0.28c0.02,0,0.03,0.01,0.05,0.02s0.02,0.03,0.02,0.05v1.56
		c0,0.17-0.04,0.33-0.12,0.48s-0.19,0.25-0.34,0.34c-0.14,0.08-0.31,0.12-0.5,0.12C61.57,148.22,61.44,148.2,61.29,148.17z
		 M61.96,147.03c0.07-0.04,0.13-0.1,0.17-0.18c0.04-0.08,0.06-0.16,0.06-0.25s-0.02-0.18-0.06-0.26c-0.04-0.08-0.1-0.14-0.17-0.19
		c-0.08-0.05-0.16-0.07-0.25-0.07c-0.1,0-0.18,0.02-0.25,0.07c-0.07,0.04-0.13,0.11-0.17,0.18c-0.04,0.08-0.06,0.17-0.06,0.27
		c0,0.09,0.02,0.18,0.06,0.26c0.04,0.08,0.1,0.13,0.17,0.18s0.16,0.06,0.25,0.06S61.88,147.07,61.96,147.03z"/>
	<path class="st4" d="M64.96,147.59h-0.39c-0.04,0-0.06-0.02-0.06-0.06v-0.81l-0.74-1.3c-0.01-0.01-0.01-0.02-0.01-0.04
		c0-0.01,0-0.02,0.01-0.03c0.01-0.01,0.02-0.01,0.04-0.01h0.46c0.04,0,0.06,0.02,0.08,0.05l0.42,0.84l0.41-0.84
		c0.02-0.03,0.04-0.05,0.08-0.05h0.46c0.02,0,0.03,0,0.04,0.01c0.01,0.01,0.01,0.02,0.01,0.03c0,0.01,0,0.02-0.01,0.04l-0.74,1.29
		v0.82C65.02,147.57,65,147.59,64.96,147.59z"/>
	<path class="st4" d="M66.18,147.51c-0.16-0.09-0.28-0.21-0.37-0.36s-0.14-0.32-0.14-0.5c0-0.19,0.05-0.36,0.14-0.51
		c0.09-0.16,0.21-0.28,0.37-0.37c0.16-0.09,0.33-0.13,0.51-0.13c0.19,0,0.36,0.04,0.51,0.13c0.16,0.09,0.28,0.21,0.37,0.37
		c0.09,0.15,0.14,0.32,0.14,0.51c0,0.18-0.05,0.35-0.14,0.5s-0.22,0.27-0.37,0.36s-0.33,0.13-0.51,0.13
		C66.5,147.64,66.33,147.6,66.18,147.51z M66.96,147.1c0.08-0.05,0.15-0.11,0.19-0.19c0.05-0.08,0.07-0.17,0.07-0.27
		c0-0.1-0.02-0.19-0.07-0.27c-0.05-0.08-0.11-0.15-0.19-0.19c-0.08-0.05-0.17-0.07-0.27-0.07s-0.18,0.02-0.27,0.07
		c-0.08,0.05-0.15,0.11-0.19,0.19c-0.05,0.08-0.07,0.17-0.07,0.27c0,0.1,0.02,0.19,0.07,0.27c0.05,0.08,0.11,0.15,0.19,0.19
		c0.08,0.05,0.17,0.07,0.27,0.07S66.88,147.15,66.96,147.1z"/>
	<path class="st4" d="M69.44,145.66h0.36c0.04,0,0.06,0.02,0.06,0.06v1.81c0,0.04-0.02,0.06-0.06,0.06h-0.28
		c-0.04,0-0.06-0.02-0.07-0.05l-0.06-0.17c-0.07,0.08-0.17,0.14-0.28,0.18s-0.22,0.07-0.33,0.07c-0.16,0-0.29-0.04-0.41-0.11
		c-0.12-0.07-0.21-0.17-0.27-0.3c-0.06-0.13-0.1-0.28-0.1-0.45v-1.05c0-0.04,0.02-0.06,0.06-0.06h0.36c0.04,0,0.06,0.02,0.06,0.06v1
		c0,0.09,0.02,0.17,0.05,0.24c0.03,0.07,0.08,0.12,0.14,0.16c0.06,0.04,0.13,0.06,0.22,0.06c0.08,0,0.16-0.02,0.23-0.06
		c0.07-0.04,0.13-0.09,0.17-0.16c0.04-0.07,0.06-0.14,0.06-0.22v-1.01C69.38,145.68,69.4,145.66,69.44,145.66z"/>
	<path class="st4" d="M71.7,145.74c0.02,0.01,0.03,0.03,0.03,0.05c0,0.01,0,0.02-0.01,0.04l-0.16,0.3
		c-0.01,0.02-0.03,0.04-0.05,0.04c-0.01,0-0.02,0-0.04-0.01c-0.08-0.04-0.16-0.07-0.23-0.07c-0.07,0-0.14,0.02-0.2,0.06
		c-0.06,0.04-0.12,0.1-0.16,0.18c-0.04,0.08-0.06,0.17-0.06,0.28v0.92c0,0.04-0.02,0.06-0.06,0.06h-0.36
		c-0.04,0-0.06-0.02-0.06-0.06v-1.81c0-0.04,0.02-0.06,0.06-0.06h0.28c0.04,0,0.06,0.02,0.07,0.05l0.06,0.18
		c0.06-0.09,0.13-0.15,0.21-0.2c0.08-0.05,0.18-0.07,0.29-0.07C71.45,145.63,71.57,145.66,71.7,145.74z"/>
	<path class="st4" d="M73.29,147.59H72.9c-0.04,0-0.06-0.02-0.06-0.06v-2.12c0-0.04,0.02-0.06,0.06-0.06h1.41
		c0.04,0,0.06,0.02,0.06,0.06v0.34c0,0.04-0.02,0.06-0.06,0.06h-0.95v0.54h0.72c0.04,0,0.06,0.02,0.06,0.06v0.32
		c0,0.04-0.02,0.06-0.06,0.06h-0.72v0.73C73.35,147.57,73.33,147.59,73.29,147.59z"/>
	<path class="st4" d="M75.96,145.66h0.36c0.04,0,0.06,0.02,0.06,0.06v1.81c0,0.04-0.02,0.06-0.06,0.06h-0.28
		c-0.04,0-0.06-0.02-0.07-0.05l-0.06-0.17c-0.07,0.08-0.17,0.14-0.28,0.18s-0.22,0.07-0.33,0.07c-0.16,0-0.29-0.04-0.41-0.11
		c-0.12-0.07-0.21-0.17-0.27-0.3c-0.06-0.13-0.1-0.28-0.1-0.45v-1.05c0-0.04,0.02-0.06,0.06-0.06h0.36c0.04,0,0.06,0.02,0.06,0.06v1
		c0,0.09,0.02,0.17,0.05,0.24c0.03,0.07,0.08,0.12,0.14,0.16c0.06,0.04,0.13,0.06,0.22,0.06c0.08,0,0.16-0.02,0.23-0.06
		c0.07-0.04,0.13-0.09,0.17-0.16c0.04-0.07,0.06-0.14,0.06-0.22v-1.01C75.9,145.68,75.92,145.66,75.96,145.66z"/>
	<path class="st4" d="M77.32,147.59h-0.36c-0.04,0-0.06-0.02-0.06-0.06v-1.42h-0.18c-0.04,0-0.06-0.02-0.06-0.06v-0.33
		c0-0.04,0.02-0.06,0.06-0.06h0.17v-0.35c0-0.04,0.02-0.06,0.06-0.07l0.37-0.07c0,0,0.01,0,0.02,0c0.02,0,0.03,0.01,0.04,0.02
		s0.01,0.02,0.01,0.04v0.43h0.32c0.04,0,0.06,0.02,0.06,0.06v0.33c0,0.04-0.02,0.06-0.06,0.06h-0.32v1.42
		C77.38,147.57,77.36,147.59,77.32,147.59z"/>
	<path class="st4" d="M79.39,145.66h0.36c0.04,0,0.06,0.02,0.06,0.06v1.81c0,0.04-0.02,0.06-0.06,0.06h-0.28
		c-0.04,0-0.06-0.02-0.07-0.05l-0.06-0.17c-0.07,0.08-0.17,0.14-0.28,0.18s-0.22,0.07-0.33,0.07c-0.16,0-0.29-0.04-0.41-0.11
		c-0.12-0.07-0.21-0.17-0.27-0.3c-0.06-0.13-0.1-0.28-0.1-0.45v-1.05c0-0.04,0.02-0.06,0.06-0.06h0.36c0.04,0,0.06,0.02,0.06,0.06v1
		c0,0.09,0.02,0.17,0.05,0.24c0.03,0.07,0.08,0.12,0.14,0.16c0.06,0.04,0.13,0.06,0.22,0.06c0.08,0,0.16-0.02,0.23-0.06
		c0.07-0.04,0.13-0.09,0.17-0.16c0.04-0.07,0.06-0.14,0.06-0.22v-1.01C79.32,145.68,79.34,145.66,79.39,145.66z"/>
	<path class="st4" d="M81.65,145.74c0.02,0.01,0.03,0.03,0.03,0.05c0,0.01,0,0.02-0.01,0.04l-0.16,0.3
		c-0.01,0.02-0.03,0.04-0.05,0.04c-0.01,0-0.02,0-0.04-0.01c-0.08-0.04-0.16-0.07-0.23-0.07c-0.07,0-0.14,0.02-0.2,0.06
		c-0.06,0.04-0.12,0.1-0.16,0.18c-0.04,0.08-0.06,0.17-0.06,0.28v0.92c0,0.04-0.02,0.06-0.06,0.06h-0.36
		c-0.04,0-0.06-0.02-0.06-0.06v-1.81c0-0.04,0.02-0.06,0.06-0.06h0.28c0.04,0,0.06,0.02,0.07,0.05l0.06,0.18
		c0.06-0.09,0.13-0.15,0.21-0.2c0.08-0.05,0.18-0.07,0.29-0.07C81.39,145.63,81.52,145.66,81.65,145.74z"/>
	<path class="st4" d="M82.17,147.51c-0.15-0.09-0.27-0.21-0.36-0.37c-0.09-0.15-0.13-0.32-0.13-0.5c0-0.18,0.04-0.35,0.12-0.51
		c0.08-0.15,0.19-0.28,0.34-0.37c0.14-0.09,0.31-0.14,0.49-0.14c0.2,0,0.37,0.04,0.51,0.13c0.14,0.09,0.26,0.21,0.33,0.36
		c0.08,0.15,0.11,0.33,0.11,0.52c0,0.03,0,0.07,0,0.11c0,0.04-0.03,0.06-0.07,0.06h-1.33c0.02,0.08,0.06,0.15,0.11,0.21
		s0.11,0.11,0.18,0.14c0.07,0.03,0.15,0.05,0.23,0.05c0.08,0,0.14-0.01,0.2-0.03c0.06-0.02,0.12-0.05,0.18-0.1
		c0.01-0.01,0.03-0.02,0.04-0.02c0.02,0,0.03,0.01,0.05,0.03l0.17,0.24c0.01,0.02,0.02,0.03,0.02,0.04c0,0.02-0.01,0.03-0.03,0.05
		c-0.09,0.07-0.19,0.12-0.3,0.16c-0.11,0.04-0.23,0.06-0.35,0.06C82.49,147.64,82.32,147.6,82.17,147.51z M82.94,146.15
		c-0.08-0.07-0.18-0.1-0.29-0.1c-0.11,0-0.21,0.03-0.29,0.1c-0.08,0.07-0.14,0.16-0.17,0.28h0.92
		C83.07,146.31,83.02,146.22,82.94,146.15z"/>
	<path class="st4" d="M86.99,145.66h0.41c0.02,0,0.03,0,0.04,0.01c0.01,0.01,0.02,0.02,0.02,0.03c0,0.01,0,0.02,0,0.03l-0.66,1.81
		c-0.01,0.04-0.04,0.05-0.07,0.05h-0.36c-0.04,0-0.06-0.02-0.07-0.05L86,146.79l-0.27,0.75c-0.01,0.04-0.03,0.05-0.07,0.05h-0.37
		c-0.04,0-0.06-0.02-0.07-0.05l-0.66-1.81c0-0.01,0-0.02,0-0.03c0-0.01,0-0.03,0.02-0.03s0.02-0.01,0.04-0.01h0.39
		c0.04,0,0.06,0.02,0.07,0.05l0.41,1.29l0.36-1.29c0.01-0.04,0.03-0.05,0.07-0.05h0.41c0.02,0,0.03,0,0.04,0.01
		c0.01,0.01,0.02,0.02,0.02,0.03c0,0.01,0,0.02,0,0.03l-0.16,0.44l0.29,0.82l0.41-1.29C86.93,145.68,86.96,145.66,86.99,145.66z"/>
	<path class="st4" d="M87.73,145.36v-0.33c0-0.04,0.02-0.06,0.06-0.06h0.37c0.04,0,0.06,0.02,0.06,0.06v0.33
		c0,0.04-0.02,0.06-0.06,0.06H87.8C87.75,145.43,87.73,145.4,87.73,145.36z M88.16,147.59H87.8c-0.04,0-0.06-0.02-0.06-0.06v-1.81
		c0-0.04,0.02-0.06,0.06-0.06h0.36c0.04,0,0.06,0.02,0.06,0.06v1.81C88.23,147.57,88.21,147.59,88.16,147.59z"/>
	<path class="st4" d="M89.16,147.59h-0.36c-0.04,0-0.06-0.02-0.06-0.06v-1.42h-0.18c-0.04,0-0.06-0.02-0.06-0.06v-0.33
		c0-0.04,0.02-0.06,0.06-0.06h0.17v-0.35c0-0.04,0.02-0.06,0.06-0.07l0.37-0.07c0,0,0.01,0,0.02,0c0.02,0,0.03,0.01,0.04,0.02
		s0.01,0.02,0.01,0.04v0.43h0.32c0.04,0,0.06,0.02,0.06,0.06v0.33c0,0.04-0.02,0.06-0.06,0.06h-0.32v1.42
		C89.22,147.57,89.2,147.59,89.16,147.59z"/>
	<path class="st4" d="M91.33,145.73c0.12,0.07,0.21,0.17,0.27,0.3c0.06,0.13,0.1,0.28,0.1,0.45v1.05c0,0.04-0.02,0.06-0.06,0.06
		h-0.36c-0.04,0-0.06-0.02-0.06-0.06v-0.99c0-0.09-0.02-0.17-0.05-0.24c-0.03-0.07-0.08-0.12-0.14-0.16
		c-0.06-0.04-0.13-0.06-0.21-0.06c-0.09,0-0.16,0.02-0.24,0.06c-0.07,0.04-0.13,0.09-0.17,0.16c-0.04,0.07-0.06,0.14-0.06,0.21v1.01
		c0,0.04-0.02,0.06-0.06,0.06h-0.36c-0.04,0-0.06-0.02-0.06-0.06v-2.38c0-0.04,0.02-0.06,0.06-0.06h0.36c0.04,0,0.06,0.02,0.06,0.06
		v0.71c0.08-0.07,0.17-0.13,0.27-0.17s0.21-0.07,0.31-0.07C91.07,145.62,91.21,145.66,91.33,145.73z"/>
	<path class="st4" d="M93.4,147.59h-0.39c-0.04,0-0.06-0.02-0.06-0.06v-2.12c0-0.04,0.02-0.06,0.06-0.06h0.39
		c0.04,0,0.06,0.02,0.06,0.06v2.12C93.47,147.57,93.44,147.59,93.4,147.59z"/>
	<path class="st4" d="M94.85,147.59h-0.39c-0.04,0-0.06-0.02-0.06-0.06v-1.7h-0.56c-0.04,0-0.06-0.02-0.06-0.06v-0.36
		c0-0.04,0.02-0.06,0.06-0.06h1.65c0.04,0,0.06,0.02,0.06,0.06v0.36c0,0.04-0.02,0.06-0.06,0.06h-0.56v1.7
		C94.91,147.57,94.89,147.59,94.85,147.59z"/>
	<path class="st4" d="M96.88,147.53c-0.15-0.07-0.28-0.16-0.39-0.28c-0.01-0.01-0.02-0.03-0.02-0.04c0-0.02,0.01-0.03,0.02-0.05
		l0.25-0.24c0.01-0.01,0.03-0.02,0.04-0.02c0.02,0,0.03,0.01,0.05,0.02c0.07,0.07,0.15,0.13,0.24,0.17
		c0.09,0.04,0.18,0.06,0.28,0.06c0.1,0,0.18-0.02,0.24-0.06c0.05-0.04,0.08-0.09,0.08-0.16c0-0.04-0.01-0.08-0.04-0.11
		s-0.07-0.06-0.13-0.09s-0.15-0.06-0.26-0.09c-0.19-0.05-0.35-0.13-0.48-0.24s-0.21-0.26-0.21-0.46c0-0.12,0.03-0.22,0.09-0.32
		c0.06-0.1,0.15-0.17,0.27-0.23c0.12-0.06,0.27-0.09,0.44-0.09c0.15,0,0.28,0.03,0.42,0.08c0.13,0.05,0.25,0.12,0.36,0.21
		c0.02,0.01,0.02,0.03,0.02,0.04c0,0.01-0.01,0.03-0.02,0.04l-0.23,0.26c-0.01,0.02-0.03,0.03-0.05,0.03
		c-0.01,0-0.03-0.01-0.04-0.02c-0.06-0.05-0.13-0.09-0.21-0.12c-0.08-0.03-0.16-0.05-0.23-0.05c-0.09,0-0.16,0.01-0.21,0.04
		c-0.05,0.03-0.08,0.07-0.08,0.13c0,0.04,0.01,0.08,0.04,0.11c0.03,0.03,0.07,0.05,0.11,0.08s0.12,0.05,0.21,0.08
		c0,0,0.02,0,0.04,0.01c0.15,0.05,0.28,0.11,0.38,0.17s0.18,0.13,0.24,0.22s0.08,0.19,0.08,0.32c0,0.14-0.04,0.27-0.1,0.37
		c-0.07,0.11-0.17,0.19-0.29,0.25s-0.27,0.09-0.44,0.09C97.19,147.63,97.03,147.6,96.88,147.53z"/>
	<path class="st4" d="M100.36,147.55c0,0.01,0,0.02-0.01,0.03s-0.02,0.01-0.04,0.01h-0.43c-0.03,0-0.06-0.01-0.08-0.04l-0.51-0.75
		l-0.25,0.26v0.47c0,0.04-0.02,0.06-0.06,0.06h-0.36c-0.04,0-0.06-0.02-0.06-0.06v-2.38c0-0.04,0.02-0.06,0.06-0.06h0.36
		c0.04,0,0.06,0.02,0.06,0.06v1.27l0.63-0.73c0.02-0.02,0.05-0.04,0.08-0.04h0.49c0.02,0,0.03,0,0.04,0.01
		c0.01,0.01,0.01,0.01,0.01,0.03c0,0.01-0.01,0.03-0.02,0.04l-0.66,0.7l0.73,1.08C100.35,147.53,100.36,147.54,100.36,147.55z"/>
	<path class="st4" d="M100.66,145.36v-0.33c0-0.04,0.02-0.06,0.06-0.06h0.37c0.04,0,0.06,0.02,0.06,0.06v0.33
		c0,0.04-0.02,0.06-0.06,0.06h-0.37C100.68,145.43,100.66,145.4,100.66,145.36z M101.09,147.59h-0.36c-0.04,0-0.06-0.02-0.06-0.06
		v-1.81c0-0.04,0.02-0.06,0.06-0.06h0.36c0.04,0,0.06,0.02,0.06,0.06v1.81C101.16,147.57,101.14,147.59,101.09,147.59z"/>
	<path class="st4" d="M102.05,147.59h-0.36c-0.04,0-0.06-0.02-0.06-0.06v-2.38c0-0.04,0.02-0.06,0.06-0.06h0.36
		c0.04,0,0.06,0.02,0.06,0.06v2.38C102.12,147.57,102.1,147.59,102.05,147.59z"/>
	<path class="st4" d="M103.01,147.59h-0.36c-0.04,0-0.06-0.02-0.06-0.06v-2.38c0-0.04,0.02-0.06,0.06-0.06h0.36
		c0.04,0,0.06,0.02,0.06,0.06v2.38C103.08,147.57,103.06,147.59,103.01,147.59z"/>
	<path class="st4" d="M103.43,147.35c-0.02-0.01-0.03-0.03-0.03-0.05c0-0.01,0.01-0.03,0.02-0.04l0.18-0.23
		c0.02-0.02,0.03-0.03,0.05-0.03c0.01,0,0.03,0.01,0.04,0.02c0.08,0.06,0.15,0.1,0.24,0.13c0.08,0.03,0.17,0.05,0.25,0.05
		c0.07,0,0.12-0.01,0.16-0.04s0.06-0.07,0.06-0.12c0-0.03-0.01-0.06-0.03-0.09c-0.02-0.02-0.06-0.05-0.11-0.07
		c-0.05-0.02-0.12-0.05-0.21-0.08c-0.16-0.05-0.3-0.13-0.4-0.22c-0.1-0.09-0.16-0.22-0.16-0.38c0-0.1,0.03-0.2,0.08-0.28
		c0.05-0.09,0.13-0.16,0.23-0.21s0.23-0.08,0.38-0.08c0.11,0,0.21,0.02,0.32,0.06s0.21,0.1,0.29,0.18c0.01,0.01,0.02,0.03,0.02,0.04
		c0,0.02-0.01,0.03-0.02,0.04l-0.22,0.23c-0.02,0.01-0.03,0.02-0.04,0.02s-0.03-0.01-0.04-0.02c-0.05-0.04-0.1-0.06-0.15-0.09
		c-0.06-0.02-0.11-0.04-0.17-0.04c-0.07,0-0.12,0.01-0.15,0.04c-0.04,0.03-0.05,0.06-0.05,0.1c0,0.03,0.01,0.06,0.03,0.08
		c0.02,0.02,0.06,0.05,0.11,0.07c0.05,0.02,0.12,0.05,0.21,0.08c0.18,0.06,0.32,0.13,0.42,0.22c0.1,0.09,0.15,0.22,0.15,0.38
		c0,0.1-0.03,0.2-0.08,0.3c-0.05,0.09-0.13,0.17-0.23,0.22c-0.1,0.06-0.22,0.08-0.36,0.08
		C103.91,147.64,103.65,147.54,103.43,147.35z"/>
</g>
</svg>
